General
Unique ID                                : 36040833268500322065924215087046424466 (0x1B1D3645B6B7A28C300FAE24B1197792)
Complete name                            : Ado - Watashi wa Saikyou (Uta from ONE PIECE FILM RED) [WEB-DL 1080p AAC 2.0 x264-SEKAI].mkv
Format                                   : Matroska
Format version                           : Version 4
File size                                : 352 MiB
Duration                                 : 4 min 23 s
Overall bit rate                         : 11.2 Mb/s
Frame rate                               : 30.000 FPS
Title                                    : Ado - Watashi wa Saikyou (Uta from ONE PIECE FILM RED) [WEB-DL 1080p AAC 2.0 x264-SEKAI]
Encoded date                             : 2026-05-01 18:54:16 UTC
Writing application                      : mkvmerge 98.0 ('Chonks') 64-bit
Writing library                          : libebml v1.4.5 + libmatroska v1.7.1
Website                                  : https://sekai-archivist.blogspot.com/

Video
ID                                       : 1
Format                                   : AVC
Format/Info                              : Advanced Video Codec
Format profile                           : High@L4
Format settings                          : CABAC / 4 Ref Frames
Format settings, CABAC                   : Yes
Format settings, Reference frames        : 4 frames
Format settings, Slice count             : 8 slices per frame
Codec ID                                 : V_MPEG4/ISO/AVC
Duration                                 : 4 min 23 s
Bit rate                                 : 11.0 Mb/s
Width                                    : 1 920 pixels
Height                                   : 1 080 pixels
Display aspect ratio                     : 16:9
Frame rate mode                          : Constant
Frame rate                               : 30.000 FPS
Color space                              : YUV
Chroma subsampling                       : 4:2:0 (Type 2)
Bit depth                                : 8 bits
Scan type                                : Progressive
Bits/(Pixel*Frame)                       : 0.176
Stream size                              : 344 MiB (98%)
Language                                 : Japanese
Default                                  : Yes
Forced                                   : No
Color range                              : Limited
Color primaries                          : BT.709
Transfer characteristics                 : BT.709
Matrix coefficients                      : BT.709

Audio
ID                                       : 2
Format                                   : AAC LC
Format/Info                              : Advanced Audio Codec Low Complexity
Codec ID                                 : A_AAC-2
Duration                                 : 4 min 23 s
Bit rate                                 : 265 kb/s
Channel(s)                               : 2 channels
Channel layout                           : L R
Sampling rate                            : 48.0 kHz
Frame rate                               : 46.875 FPS (1024 SPF)
Compression mode                         : Lossy
Stream size                              : 8.27 MiB (2%)
Language                                 : Japanese
Default                                  : Yes
Forced                                   : No


